<svg width="5460" height="1341" viewBox="0 0 5460 1341" fill="none" xmlns="http://www.w3.org/2000/svg">
<path d="M145.688 263.847C145.688 216.976 183.684 178.98 230.555 178.98H406.638C444.937 178.98 478.49 204.632 488.534 241.591L589.126 611.746C602.163 659.719 670.231 659.67 683.199 611.679L783.176 241.707C793.179 204.691 826.76 178.98 865.104 178.98H1042.94C1089.81 178.98 1127.81 216.976 1127.81 263.847V1076.54C1127.81 1123.41 1089.81 1161.4 1042.94 1161.4H892.693H655.684H380.805H230.555C183.684 1161.4 145.688 1123.41 145.688 1076.54V263.847Z" fill="#CE4257"/>
<path d="M2233.31 358.999H2357.91V977.839H2229.16V579.123L2042.26 820.014H2025.65L1838.75 569.986V977.839H1710V358.999H1834.6L2033.13 620.656L2233.31 358.999Z" fill="white"/>
<path d="M2642.32 514.332C2757.78 514.332 2836.7 581.615 2836.7 678.802V977.839H2720.4V936.306C2686.35 972.025 2644.81 987.807 2592.48 987.807C2489.48 987.807 2424.69 929.661 2424.69 854.071C2424.69 786.788 2477.85 742.763 2570.06 723.658L2712.1 693.754V678.802C2712.1 644.745 2683.86 622.318 2642.32 622.318C2598.3 622.318 2561.75 648.068 2548.46 688.77L2441.3 637.269C2467.88 562.51 2545.97 514.332 2642.32 514.332ZM2611.59 896.435C2668.07 896.435 2712.1 855.733 2712.1 805.062V783.465L2592.48 810.046C2566.73 815.861 2553.44 831.643 2553.44 852.41C2553.44 879.822 2575.87 896.435 2611.59 896.435Z" fill="white"/>
<path d="M3238.65 524.3H3354.94V953.75C3354.94 1080.84 3247.79 1162.25 3121.53 1162.25C3017.7 1162.25 2934.63 1107.42 2908.05 1024.36L3014.37 972.025C3028.49 1021.03 3066.7 1050.11 3121.53 1050.11C3183.83 1050.11 3230.34 1012.73 3230.34 953.75V909.725C3198.78 939.629 3154.75 955.411 3104.08 955.411C2981.15 955.411 2878.15 867.362 2878.15 733.626C2878.15 596.567 2986.13 514.332 3101.59 514.332C3160.57 514.332 3207.09 535.929 3238.65 572.478V524.3ZM3119.87 842.442C3183.83 842.442 3230.34 798.417 3230.34 735.287C3230.34 670.496 3182.17 626.471 3119.87 626.471C3057.57 626.471 3006.9 670.496 3006.9 735.287C3006.9 798.417 3055.91 842.442 3119.87 842.442Z" fill="white"/>
<path d="M3718.4 514.332C3838.02 514.332 3925.23 602.382 3925.23 723.658C3925.23 862.378 3810.6 987.807 3668.56 987.807C3607.09 987.807 3554.76 964.549 3526.52 928L3480 1143.97H3355.4L3485.82 524.3H3602.11L3594.63 559.188C3629.52 527.623 3671.88 514.332 3718.4 514.332ZM3665.24 873.176C3740.83 873.176 3796.48 809.216 3796.48 732.795C3796.48 667.173 3754.95 623.979 3691.82 623.979C3613.74 623.979 3562.24 691.262 3562.24 764.36C3562.24 829.982 3603.77 873.176 3665.24 873.176Z" fill="white"/>
<path d="M4178.77 987.807C4053.34 987.807 3959.48 902.249 3959.48 774.328C3959.48 633.947 4073.28 514.332 4225.29 514.332C4354.04 514.332 4447.08 600.721 4447.08 726.15C4447.08 866.531 4329.12 987.807 4178.77 987.807ZM4190.4 875.668C4262.67 875.668 4318.32 815.03 4318.32 734.456C4318.32 671.326 4278.45 626.471 4216.15 626.471C4143.89 626.471 4088.23 687.94 4088.23 766.021C4088.23 831.643 4128.1 875.668 4190.4 875.668Z" fill="white"/>
<path d="M4456.99 977.839L4588.23 358.999H4712.83L4581.58 977.839H4456.99Z" fill="white"/>
<path d="M4664.65 977.839L4795.89 358.999H4920.49L4789.25 977.839H4664.65Z" fill="white"/>
<path d="M5115.7 987.807C4990.27 987.807 4896.4 902.249 4896.4 774.328C4896.4 633.947 5010.2 514.332 5162.21 514.332C5290.97 514.332 5384 600.721 5384 726.15C5384 866.531 5266.05 987.807 5115.7 987.807ZM5127.33 875.668C5199.59 875.668 5255.25 815.03 5255.25 734.456C5255.25 671.326 5215.38 626.471 5153.08 626.471C5080.81 626.471 5025.16 687.94 5025.16 766.021C5025.16 831.643 5065.03 875.668 5127.33 875.668Z" fill="white"/>
</svg>
